<mxfile host="Electron" modified="2024-01-06T03:43:08.525Z" agent="Mozilla/5.0 (Windows NT 10.0; Win64; x64) AppleWebKit/537.36 (KHTML, like Gecko) draw.io/22.1.16 Chrome/120.0.6099.109 Electron/28.1.0 Safari/537.36" etag="zI0iyKQ7gUykLN9qj_QM" version="22.1.16" type="device">
  <diagram name="Page-1" id="9hoejIoUFPgRDHNFCFaO">
    <mxGraphModel dx="1420" dy="822" grid="0" gridSize="10" guides="0" tooltips="1" connect="1" arrows="1" fold="1" page="0" pageScale="1" pageWidth="827" pageHeight="1169" math="0" shadow="0">
      <root>
        <mxCell id="0" />
        <mxCell id="1" parent="0" />
        <mxCell id="HVG9GrEk0hXYHYtOyt_u-2" style="edgeStyle=orthogonalEdgeStyle;rounded=0;orthogonalLoop=1;jettySize=auto;html=1;" edge="1" parent="1" source="HVG9GrEk0hXYHYtOyt_u-1" target="HVG9GrEk0hXYHYtOyt_u-3">
          <mxGeometry relative="1" as="geometry">
            <mxPoint x="240" y="330" as="targetPoint" />
          </mxGeometry>
        </mxCell>
        <mxCell id="HVG9GrEk0hXYHYtOyt_u-1" value="Data Collection" style="rounded=0;whiteSpace=wrap;html=1;" vertex="1" parent="1">
          <mxGeometry x="40" y="300" width="120" height="60" as="geometry" />
        </mxCell>
        <mxCell id="HVG9GrEk0hXYHYtOyt_u-5" value="" style="edgeStyle=orthogonalEdgeStyle;rounded=0;orthogonalLoop=1;jettySize=auto;html=1;" edge="1" parent="1" source="HVG9GrEk0hXYHYtOyt_u-3" target="HVG9GrEk0hXYHYtOyt_u-4">
          <mxGeometry relative="1" as="geometry" />
        </mxCell>
        <mxCell id="HVG9GrEk0hXYHYtOyt_u-3" value="Analysis" style="rounded=0;whiteSpace=wrap;html=1;" vertex="1" parent="1">
          <mxGeometry x="180" y="300" width="120" height="60" as="geometry" />
        </mxCell>
        <mxCell id="HVG9GrEk0hXYHYtOyt_u-6" style="edgeStyle=orthogonalEdgeStyle;rounded=0;orthogonalLoop=1;jettySize=auto;html=1;" edge="1" parent="1" source="HVG9GrEk0hXYHYtOyt_u-4" target="HVG9GrEk0hXYHYtOyt_u-7">
          <mxGeometry relative="1" as="geometry">
            <mxPoint x="490" y="330" as="targetPoint" />
          </mxGeometry>
        </mxCell>
        <mxCell id="HVG9GrEk0hXYHYtOyt_u-4" value="Preprocessing" style="rounded=0;whiteSpace=wrap;html=1;" vertex="1" parent="1">
          <mxGeometry x="340" y="300" width="120" height="60" as="geometry" />
        </mxCell>
        <mxCell id="HVG9GrEk0hXYHYtOyt_u-9" value="" style="edgeStyle=orthogonalEdgeStyle;rounded=0;orthogonalLoop=1;jettySize=auto;html=1;" edge="1" parent="1" source="HVG9GrEk0hXYHYtOyt_u-7" target="HVG9GrEk0hXYHYtOyt_u-8">
          <mxGeometry relative="1" as="geometry" />
        </mxCell>
        <mxCell id="HVG9GrEk0hXYHYtOyt_u-11" value="" style="edgeStyle=orthogonalEdgeStyle;rounded=0;orthogonalLoop=1;jettySize=auto;html=1;" edge="1" parent="1" source="HVG9GrEk0hXYHYtOyt_u-7" target="HVG9GrEk0hXYHYtOyt_u-10">
          <mxGeometry relative="1" as="geometry" />
        </mxCell>
        <mxCell id="HVG9GrEk0hXYHYtOyt_u-7" value="model" style="rounded=0;whiteSpace=wrap;html=1;" vertex="1" parent="1">
          <mxGeometry x="480" y="300" width="120" height="60" as="geometry" />
        </mxCell>
        <mxCell id="HVG9GrEk0hXYHYtOyt_u-8" value="Clustering" style="rounded=0;whiteSpace=wrap;html=1;" vertex="1" parent="1">
          <mxGeometry x="480" y="390" width="120" height="60" as="geometry" />
        </mxCell>
        <mxCell id="HVG9GrEk0hXYHYtOyt_u-15" style="edgeStyle=orthogonalEdgeStyle;rounded=0;orthogonalLoop=1;jettySize=auto;html=1;entryX=0;entryY=0.5;entryDx=0;entryDy=0;" edge="1" parent="1" source="HVG9GrEk0hXYHYtOyt_u-10" target="HVG9GrEk0hXYHYtOyt_u-13">
          <mxGeometry relative="1" as="geometry" />
        </mxCell>
        <mxCell id="HVG9GrEk0hXYHYtOyt_u-10" value="web app" style="rounded=0;whiteSpace=wrap;html=1;" vertex="1" parent="1">
          <mxGeometry x="640" y="300" width="120" height="60" as="geometry" />
        </mxCell>
        <mxCell id="HVG9GrEk0hXYHYtOyt_u-13" value="Deployment" style="rounded=0;whiteSpace=wrap;html=1;" vertex="1" parent="1">
          <mxGeometry x="798" y="300" width="120" height="60" as="geometry" />
        </mxCell>
      </root>
    </mxGraphModel>
  </diagram>
</mxfile>
